<svg width="116" height="103" viewBox="0 0 116 103" fill="none" xmlns="http://www.w3.org/2000/svg">
<g clip-path="url(#clip0_245_5)">
<rect width="116" height="103" rx="12" fill="black"/>
<g filter="url(#filter0_d_245_5)">
<path d="M18.0384 57V45.3636H20.1463V50.2898H25.5384V45.3636H27.652V57H25.5384V52.0568H20.1463V57H18.0384ZM31.4389 57H29.1889L33.2855 45.3636H35.8878L39.9901 57H37.7401L34.6321 47.75H34.5412L31.4389 57ZM31.5128 52.4375H37.6491V54.1307H31.5128V52.4375ZM50.9361 49.2898H48.8111C48.7505 48.9413 48.6387 48.6326 48.4759 48.3636C48.313 48.0909 48.1103 47.8598 47.8679 47.6705C47.6255 47.4811 47.349 47.339 47.0384 47.2443C46.7315 47.1458 46.4001 47.0966 46.044 47.0966C45.4115 47.0966 44.8509 47.2557 44.3622 47.5739C43.8736 47.8883 43.491 48.3504 43.2145 48.9602C42.938 49.5663 42.7997 50.3068 42.7997 51.1818C42.7997 52.072 42.938 52.822 43.2145 53.4318C43.4948 54.0379 43.8774 54.4962 44.3622 54.8068C44.8509 55.1136 45.4096 55.267 46.0384 55.267C46.3868 55.267 46.7126 55.2216 47.0156 55.1307C47.3224 55.036 47.5971 54.8977 47.8395 54.7159C48.0857 54.5341 48.2921 54.3106 48.4588 54.0455C48.6293 53.7803 48.7467 53.4773 48.8111 53.1364L50.9361 53.1477C50.8565 53.7008 50.6842 54.2197 50.419 54.7045C50.1577 55.1894 49.8149 55.6174 49.3906 55.9886C48.9664 56.3561 48.4702 56.6439 47.902 56.8523C47.3338 57.0568 46.7031 57.1591 46.0099 57.1591C44.9872 57.1591 44.0743 56.9223 43.2713 56.4489C42.4683 55.9754 41.8357 55.2917 41.3736 54.3977C40.9115 53.5038 40.6804 52.4318 40.6804 51.1818C40.6804 49.928 40.9134 48.8561 41.3793 47.9659C41.8452 47.072 42.4796 46.3883 43.2827 45.9148C44.0857 45.4413 44.9948 45.2045 46.0099 45.2045C46.6577 45.2045 47.2599 45.2955 47.8168 45.4773C48.3736 45.6591 48.8698 45.9261 49.3054 46.2784C49.741 46.6269 50.099 47.0549 50.3793 47.5625C50.6634 48.0663 50.849 48.642 50.9361 49.2898ZM52.8665 57V45.3636H54.9744V50.7102H55.1165L59.6562 45.3636H62.2301L57.7301 50.5852L62.2699 57H59.7358L56.2642 52.0114L54.9744 53.5341V57H52.8665ZM63.6946 57V45.3636H71.2628V47.1307H65.8026V50.2898H70.8707V52.0568H65.8026V55.233H71.3082V57H63.6946ZM77.3565 57H73.4134V45.3636H77.4361C78.5914 45.3636 79.5838 45.5966 80.4134 46.0625C81.2467 46.5246 81.8868 47.1894 82.3338 48.0568C82.7808 48.9242 83.0043 49.9621 83.0043 51.1705C83.0043 52.3826 82.7789 53.4242 82.3281 54.2955C81.8812 55.1667 81.2353 55.8352 80.3906 56.3011C79.5497 56.767 78.5384 57 77.3565 57ZM75.5213 55.1761H77.2543C78.0649 55.1761 78.741 55.0284 79.2827 54.733C79.8243 54.4337 80.2315 53.9886 80.5043 53.3977C80.777 52.803 80.9134 52.0606 80.9134 51.1705C80.9134 50.2803 80.777 49.5417 80.5043 48.9545C80.2315 48.3636 79.8281 47.9223 79.294 47.6307C78.7637 47.3352 78.1046 47.1875 77.3168 47.1875H75.5213V55.1761ZM87.1151 45.3636V57H85.0071V45.3636H87.1151ZM98.9602 45.3636V57H97.0852L91.6023 49.0739H91.5057V57H89.3977V45.3636H91.2841L96.7614 53.2955H96.8636V45.3636H98.9602Z" fill="white"/>
</g>
</g>
<defs>
<filter id="filter0_d_245_5" x="0.238354" y="28.4045" width="116.522" height="47.5546" filterUnits="userSpaceOnUse" color-interpolation-filters="sRGB">
<feFlood flood-opacity="0" result="BackgroundImageFix"/>
<feColorMatrix in="SourceAlpha" type="matrix" values="0 0 0 0 0 0 0 0 0 0 0 0 0 0 0 0 0 0 127 0" result="hardAlpha"/>
<feOffset dy="1"/>
<feGaussianBlur stdDeviation="8.9"/>
<feComposite in2="hardAlpha" operator="out"/>
<feColorMatrix type="matrix" values="0 0 0 0 1 0 0 0 0 1 0 0 0 0 1 0 0 0 0.75 0"/>
<feBlend mode="normal" in2="BackgroundImageFix" result="effect1_dropShadow_245_5"/>
<feBlend mode="normal" in="SourceGraphic" in2="effect1_dropShadow_245_5" result="shape"/>
</filter>
<clipPath id="clip0_245_5">
<rect width="116" height="103" rx="12" fill="white"/>
</clipPath>
</defs>
</svg>
