<svg width="116" height="74" viewBox="0 0 116 74" fill="none" xmlns="http://www.w3.org/2000/svg">
<g clip-path="url(#clip0_245_5)">
<rect width="116" height="74" rx="12" fill="black"/>
<g filter="url(#filter0_d_245_5)">
<path d="M18.0384 42V30.3636H20.1463V35.2898H25.5384V30.3636H27.652V42H25.5384V37.0568H20.1463V42H18.0384ZM31.4389 42H29.1889L33.2855 30.3636H35.8878L39.9901 42H37.7401L34.6321 32.75H34.5412L31.4389 42ZM31.5128 37.4375H37.6491V39.1307H31.5128V37.4375ZM50.9361 34.2898H48.8111C48.7505 33.9413 48.6387 33.6326 48.4759 33.3636C48.313 33.0909 48.1103 32.8598 47.8679 32.6705C47.6255 32.4811 47.349 32.339 47.0384 32.2443C46.7315 32.1458 46.4001 32.0966 46.044 32.0966C45.4115 32.0966 44.8509 32.2557 44.3622 32.5739C43.8736 32.8883 43.491 33.3504 43.2145 33.9602C42.938 34.5663 42.7997 35.3068 42.7997 36.1818C42.7997 37.072 42.938 37.822 43.2145 38.4318C43.4948 39.0379 43.8774 39.4962 44.3622 39.8068C44.8509 40.1136 45.4096 40.267 46.0384 40.267C46.3868 40.267 46.7126 40.2216 47.0156 40.1307C47.3224 40.036 47.5971 39.8977 47.8395 39.7159C48.0857 39.5341 48.2921 39.3106 48.4588 39.0455C48.6293 38.7803 48.7467 38.4773 48.8111 38.1364L50.9361 38.1477C50.8565 38.7008 50.6842 39.2197 50.419 39.7045C50.1577 40.1894 49.8149 40.6174 49.3906 40.9886C48.9664 41.3561 48.4702 41.6439 47.902 41.8523C47.3338 42.0568 46.7031 42.1591 46.0099 42.1591C44.9872 42.1591 44.0743 41.9223 43.2713 41.4489C42.4683 40.9754 41.8357 40.2917 41.3736 39.3977C40.9115 38.5038 40.6804 37.4318 40.6804 36.1818C40.6804 34.928 40.9134 33.8561 41.3793 32.9659C41.8452 32.072 42.4796 31.3883 43.2827 30.9148C44.0857 30.4413 44.9948 30.2045 46.0099 30.2045C46.6577 30.2045 47.2599 30.2955 47.8168 30.4773C48.3736 30.6591 48.8698 30.9261 49.3054 31.2784C49.741 31.6269 50.099 32.0549 50.3793 32.5625C50.6634 33.0663 50.849 33.642 50.9361 34.2898ZM52.8665 42V30.3636H54.9744V35.7102H55.1165L59.6562 30.3636H62.2301L57.7301 35.5852L62.2699 42H59.7358L56.2642 37.0114L54.9744 38.5341V42H52.8665ZM63.6946 42V30.3636H71.2628V32.1307H65.8026V35.2898H70.8707V37.0568H65.8026V40.233H71.3082V42H63.6946ZM77.3565 42H73.4134V30.3636H77.4361C78.5914 30.3636 79.5838 30.5966 80.4134 31.0625C81.2467 31.5246 81.8868 32.1894 82.3338 33.0568C82.7808 33.9242 83.0043 34.9621 83.0043 36.1705C83.0043 37.3826 82.7789 38.4242 82.3281 39.2955C81.8812 40.1667 81.2353 40.8352 80.3906 41.3011C79.5497 41.767 78.5384 42 77.3565 42ZM75.5213 40.1761H77.2543C78.0649 40.1761 78.741 40.0284 79.2827 39.733C79.8243 39.4337 80.2315 38.9886 80.5043 38.3977C80.777 37.803 80.9134 37.0606 80.9134 36.1705C80.9134 35.2803 80.777 34.5417 80.5043 33.9545C80.2315 33.3636 79.8281 32.9223 79.294 32.6307C78.7637 32.3352 78.1046 32.1875 77.3168 32.1875H75.5213V40.1761ZM87.1151 30.3636V42H85.0071V30.3636H87.1151ZM98.9602 30.3636V42H97.0852L91.6023 34.0739H91.5057V42H89.3977V30.3636H91.2841L96.7614 38.2955H96.8636V30.3636H98.9602Z" fill="white"/>
</g>
</g>
<defs>
<filter id="filter0_d_245_5" x="0.238354" y="13.4045" width="116.522" height="47.5546" filterUnits="userSpaceOnUse" color-interpolation-filters="sRGB">
<feFlood flood-opacity="0" result="BackgroundImageFix"/>
<feColorMatrix in="SourceAlpha" type="matrix" values="0 0 0 0 0 0 0 0 0 0 0 0 0 0 0 0 0 0 127 0" result="hardAlpha"/>
<feOffset dy="1"/>
<feGaussianBlur stdDeviation="8.9"/>
<feComposite in2="hardAlpha" operator="out"/>
<feColorMatrix type="matrix" values="0 0 0 0 1 0 0 0 0 1 0 0 0 0 1 0 0 0 0.75 0"/>
<feBlend mode="normal" in2="BackgroundImageFix" result="effect1_dropShadow_245_5"/>
<feBlend mode="normal" in="SourceGraphic" in2="effect1_dropShadow_245_5" result="shape"/>
</filter>
<clipPath id="clip0_245_5">
<rect width="116" height="74" rx="12" fill="white"/>
</clipPath>
</defs>
</svg>
